ISO-10303-21;
HEADER;
FILE_DESCRIPTION(('FreeCAD Model'),'2;1');
FILE_NAME('Open CASCADE Shape Model','2026-09-05T19:49:47',(''),(''),
  'Open CASCADE STEP processor 7.8','FreeCAD','Unknown');
FILE_SCHEMA((
'AP242_MANAGED_MODEL_BASED_3D_ENGINEERING_MIM_LF. {1 0 10303 442 1 1 4 
}'));
ENDSEC;
DATA;
#1 = APPLICATION_PROTOCOL_DEFINITION('international standard',
  'ap242_managed_model_based_3d_engineering',2013,#2);
#2 = APPLICATION_CONTEXT('Managed model based 3d engineering');
#3 = SHAPE_DEFINITION_REPRESENTATION(#4,#10);
#4 = PRODUCT_DEFINITION_SHAPE('','',#5);
#5 = PRODUCT_DEFINITION('design','',#6,#9);
#6 = PRODUCT_DEFINITION_FORMATION('','',#7);
#7 = PRODUCT('Fillet001','Fillet001','',(#8));
#8 = PRODUCT_CONTEXT('',#2,'mechanical');
#9 = PRODUCT_DEFINITION_CONTEXT('part definition',#2,'design');
#10 = ADVANCED_BREP_SHAPE_REPRESENTATION('',(#11,#15),#469);
#11 = AXIS2_PLACEMENT_3D('',#12,#13,#14);
#12 = CARTESIAN_POINT('',(0.,0.,0.));
#13 = DIRECTION('',(0.,0.,1.));
#14 = DIRECTION('',(1.,0.,-0.));
#15 = MANIFOLD_SOLID_BREP('',#16);
#16 = CLOSED_SHELL('',(#17,#57,#90,#123,#182,#207,#224,#248,#279,#296,
    #320,#345,#370,#387,#405,#423,#447,#458));
#17 = ADVANCED_FACE('',(#18),#52,.F.);
#18 = FACE_BOUND('',#19,.F.);
#19 = EDGE_LOOP('',(#20,#30,#38,#46));
#20 = ORIENTED_EDGE('',*,*,#21,.F.);
#21 = EDGE_CURVE('',#22,#24,#26,.T.);
#22 = VERTEX_POINT('',#23);
#23 = CARTESIAN_POINT('',(-0.6,-0.25,0.));
#24 = VERTEX_POINT('',#25);
#25 = CARTESIAN_POINT('',(-0.6,-0.25,0.15));
#26 = LINE('',#27,#28);
#27 = CARTESIAN_POINT('',(-0.6,-0.25,0.));
#28 = VECTOR('',#29,1.);
#29 = DIRECTION('',(0.,0.,1.));
#30 = ORIENTED_EDGE('',*,*,#31,.T.);
#31 = EDGE_CURVE('',#22,#32,#34,.T.);
#32 = VERTEX_POINT('',#33);
#33 = CARTESIAN_POINT('',(-0.6,0.25,0.));
#34 = LINE('',#35,#36);
#35 = CARTESIAN_POINT('',(-0.6,-0.5,0.));
#36 = VECTOR('',#37,1.);
#37 = DIRECTION('',(0.,1.,0.));
#38 = ORIENTED_EDGE('',*,*,#39,.T.);
#39 = EDGE_CURVE('',#32,#40,#42,.T.);
#40 = VERTEX_POINT('',#41);
#41 = CARTESIAN_POINT('',(-0.6,0.25,0.15));
#42 = LINE('',#43,#44);
#43 = CARTESIAN_POINT('',(-0.6,0.25,0.));
#44 = VECTOR('',#45,1.);
#45 = DIRECTION('',(0.,0.,1.));
#46 = ORIENTED_EDGE('',*,*,#47,.F.);
#47 = EDGE_CURVE('',#24,#40,#48,.T.);
#48 = LINE('',#49,#50);
#49 = CARTESIAN_POINT('',(-0.6,-0.25,0.15));
#50 = VECTOR('',#51,1.);
#51 = DIRECTION('',(0.,1.,0.));
#52 = PLANE('',#53);
#53 = AXIS2_PLACEMENT_3D('',#54,#55,#56);
#54 = CARTESIAN_POINT('',(-0.6,-0.5,0.));
#55 = DIRECTION('',(1.,0.,0.));
#56 = DIRECTION('',(0.,0.,1.));
#57 = ADVANCED_FACE('',(#58),#85,.T.);
#58 = FACE_BOUND('',#59,.T.);
#59 = EDGE_LOOP('',(#60,#61,#70,#78));
#60 = ORIENTED_EDGE('',*,*,#21,.F.);
#61 = ORIENTED_EDGE('',*,*,#62,.T.);
#62 = EDGE_CURVE('',#22,#63,#65,.T.);
#63 = VERTEX_POINT('',#64);
#64 = CARTESIAN_POINT('',(-0.35,-0.5,0.));
#65 = CIRCLE('',#66,0.25);
#66 = AXIS2_PLACEMENT_3D('',#67,#68,#69);
#67 = CARTESIAN_POINT('',(-0.35,-0.25,0.));
#68 = DIRECTION('',(-0.,0.,1.));
#69 = DIRECTION('',(0.,-1.,0.));
#70 = ORIENTED_EDGE('',*,*,#71,.T.);
#71 = EDGE_CURVE('',#63,#72,#74,.T.);
#72 = VERTEX_POINT('',#73);
#73 = CARTESIAN_POINT('',(-0.35,-0.5,0.15));
#74 = LINE('',#75,#76);
#75 = CARTESIAN_POINT('',(-0.35,-0.5,0.));
#76 = VECTOR('',#77,1.);
#77 = DIRECTION('',(0.,0.,1.));
#78 = ORIENTED_EDGE('',*,*,#79,.T.);
#79 = EDGE_CURVE('',#72,#24,#80,.T.);
#80 = CIRCLE('',#81,0.25);
#81 = AXIS2_PLACEMENT_3D('',#82,#83,#84);
#82 = CARTESIAN_POINT('',(-0.35,-0.25,0.15));
#83 = DIRECTION('',(-0.,0.,-1.));
#84 = DIRECTION('',(-2.22044604925E-16,-1.,0.));
#85 = CYLINDRICAL_SURFACE('',#86,0.25);
#86 = AXIS2_PLACEMENT_3D('',#87,#88,#89);
#87 = CARTESIAN_POINT('',(-0.35,-0.25,0.));
#88 = DIRECTION('',(0.,0.,1.));
#89 = DIRECTION('',(-1.,0.,0.));
#90 = ADVANCED_FACE('',(#91),#118,.T.);
#91 = FACE_BOUND('',#92,.T.);
#92 = EDGE_LOOP('',(#93,#102,#110,#117));
#93 = ORIENTED_EDGE('',*,*,#94,.T.);
#94 = EDGE_CURVE('',#24,#95,#97,.T.);
#95 = VERTEX_POINT('',#96);
#96 = CARTESIAN_POINT('',(-0.35,-0.25,0.4));
#97 = CIRCLE('',#98,0.25);
#98 = AXIS2_PLACEMENT_3D('',#99,#100,#101);
#99 = CARTESIAN_POINT('',(-0.35,-0.25,0.15));
#100 = DIRECTION('',(0.,1.,0.));
#101 = DIRECTION('',(-1.,0.,0.));
#102 = ORIENTED_EDGE('',*,*,#103,.T.);
#103 = EDGE_CURVE('',#95,#104,#106,.T.);
#104 = VERTEX_POINT('',#105);
#105 = CARTESIAN_POINT('',(-0.35,0.25,0.4));
#106 = LINE('',#107,#108);
#107 = CARTESIAN_POINT('',(-0.35,-0.25,0.4));
#108 = VECTOR('',#109,1.);
#109 = DIRECTION('',(0.,1.,0.));
#110 = ORIENTED_EDGE('',*,*,#111,.F.);
#111 = EDGE_CURVE('',#40,#104,#112,.T.);
#112 = CIRCLE('',#113,0.25);
#113 = AXIS2_PLACEMENT_3D('',#114,#115,#116);
#114 = CARTESIAN_POINT('',(-0.35,0.25,0.15));
#115 = DIRECTION('',(0.,1.,0.));
#116 = DIRECTION('',(-1.,0.,0.));
#117 = ORIENTED_EDGE('',*,*,#47,.F.);
#118 = CYLINDRICAL_SURFACE('',#119,0.25);
#119 = AXIS2_PLACEMENT_3D('',#120,#121,#122);
#120 = CARTESIAN_POINT('',(-0.35,-0.25,0.15));
#121 = DIRECTION('',(0.,1.,0.));
#122 = DIRECTION('',(-1.,0.,0.));
#123 = ADVANCED_FACE('',(#124),#177,.F.);
#124 = FACE_BOUND('',#125,.F.);
#125 = EDGE_LOOP('',(#126,#127,#128,#136,#145,#153,#162,#170));
#126 = ORIENTED_EDGE('',*,*,#31,.F.);
#127 = ORIENTED_EDGE('',*,*,#62,.T.);
#128 = ORIENTED_EDGE('',*,*,#129,.T.);
#129 = EDGE_CURVE('',#63,#130,#132,.T.);
#130 = VERTEX_POINT('',#131);
#131 = CARTESIAN_POINT('',(0.35,-0.5,0.));
#132 = LINE('',#133,#134);
#133 = CARTESIAN_POINT('',(-0.6,-0.5,0.));
#134 = VECTOR('',#135,1.);
#135 = DIRECTION('',(1.,0.,0.));
#136 = ORIENTED_EDGE('',*,*,#137,.F.);
#137 = EDGE_CURVE('',#138,#130,#140,.T.);
#138 = VERTEX_POINT('',#139);
#139 = CARTESIAN_POINT('',(0.6,-0.25,0.));
#140 = CIRCLE('',#141,0.25);
#141 = AXIS2_PLACEMENT_3D('',#142,#143,#144);
#142 = CARTESIAN_POINT('',(0.35,-0.25,0.));
#143 = DIRECTION('',(-0.,-0.,-1.));
#144 = DIRECTION('',(0.,-1.,0.));
#145 = ORIENTED_EDGE('',*,*,#146,.T.);
#146 = EDGE_CURVE('',#138,#147,#149,.T.);
#147 = VERTEX_POINT('',#148);
#148 = CARTESIAN_POINT('',(0.6,0.25,0.));
#149 = LINE('',#150,#151);
#150 = CARTESIAN_POINT('',(0.6,-0.5,0.));
#151 = VECTOR('',#152,1.);
#152 = DIRECTION('',(0.,1.,0.));
#153 = ORIENTED_EDGE('',*,*,#154,.T.);
#154 = EDGE_CURVE('',#147,#155,#157,.T.);
#155 = VERTEX_POINT('',#156);
#156 = CARTESIAN_POINT('',(0.35,0.5,0.));
#157 = CIRCLE('',#158,0.25);
#158 = AXIS2_PLACEMENT_3D('',#159,#160,#161);
#159 = CARTESIAN_POINT('',(0.35,0.25,0.));
#160 = DIRECTION('',(-0.,0.,1.));
#161 = DIRECTION('',(0.,-1.,0.));
#162 = ORIENTED_EDGE('',*,*,#163,.F.);
#163 = EDGE_CURVE('',#164,#155,#166,.T.);
#164 = VERTEX_POINT('',#165);
#165 = CARTESIAN_POINT('',(-0.35,0.5,0.));
#166 = LINE('',#167,#168);
#167 = CARTESIAN_POINT('',(-0.6,0.5,0.));
#168 = VECTOR('',#169,1.);
#169 = DIRECTION('',(1.,0.,0.));
#170 = ORIENTED_EDGE('',*,*,#171,.F.);
#171 = EDGE_CURVE('',#32,#164,#172,.T.);
#172 = CIRCLE('',#173,0.25);
#173 = AXIS2_PLACEMENT_3D('',#174,#175,#176);
#174 = CARTESIAN_POINT('',(-0.35,0.25,0.));
#175 = DIRECTION('',(-0.,-0.,-1.));
#176 = DIRECTION('',(0.,-1.,0.));
#177 = PLANE('',#178);
#178 = AXIS2_PLACEMENT_3D('',#179,#180,#181);
#179 = CARTESIAN_POINT('',(-0.6,-0.5,0.));
#180 = DIRECTION('',(0.,0.,1.));
#181 = DIRECTION('',(1.,0.,0.));
#182 = ADVANCED_FACE('',(#183),#202,.T.);
#183 = FACE_BOUND('',#184,.F.);
#184 = EDGE_LOOP('',(#185,#186,#187,#195));
#185 = ORIENTED_EDGE('',*,*,#39,.F.);
#186 = ORIENTED_EDGE('',*,*,#171,.T.);
#187 = ORIENTED_EDGE('',*,*,#188,.T.);
#188 = EDGE_CURVE('',#164,#189,#191,.T.);
#189 = VERTEX_POINT('',#190);
#190 = CARTESIAN_POINT('',(-0.35,0.5,0.15));
#191 = LINE('',#192,#193);
#192 = CARTESIAN_POINT('',(-0.35,0.5,0.));
#193 = VECTOR('',#194,1.);
#194 = DIRECTION('',(0.,0.,1.));
#195 = ORIENTED_EDGE('',*,*,#196,.F.);
#196 = EDGE_CURVE('',#40,#189,#197,.T.);
#197 = CIRCLE('',#198,0.25);
#198 = AXIS2_PLACEMENT_3D('',#199,#200,#201);
#199 = CARTESIAN_POINT('',(-0.35,0.25,0.15));
#200 = DIRECTION('',(-0.,0.,-1.));
#201 = DIRECTION('',(-1.,2.22044604925E-16,0.));
#202 = CYLINDRICAL_SURFACE('',#203,0.25);
#203 = AXIS2_PLACEMENT_3D('',#204,#205,#206);
#204 = CARTESIAN_POINT('',(-0.35,0.25,0.));
#205 = DIRECTION('',(0.,0.,1.));
#206 = DIRECTION('',(-1.,0.,0.));
#207 = ADVANCED_FACE('',(#208),#219,.T.);
#208 = FACE_BOUND('',#209,.F.);
#209 = EDGE_LOOP('',(#210,#217,#218));
#210 = ORIENTED_EDGE('',*,*,#211,.F.);
#211 = EDGE_CURVE('',#72,#95,#212,.T.);
#212 = CIRCLE('',#213,0.25);
#213 = AXIS2_PLACEMENT_3D('',#214,#215,#216);
#214 = CARTESIAN_POINT('',(-0.35,-0.25,0.15));
#215 = DIRECTION('',(-1.,-0.,0.));
#216 = DIRECTION('',(0.,-1.,0.));
#217 = ORIENTED_EDGE('',*,*,#79,.T.);
#218 = ORIENTED_EDGE('',*,*,#94,.T.);
#219 = SPHERICAL_SURFACE('',#220,0.25);
#220 = AXIS2_PLACEMENT_3D('',#221,#222,#223);
#221 = CARTESIAN_POINT('',(-0.35,-0.25,0.15));
#222 = DIRECTION('',(0.,0.,1.));
#223 = DIRECTION('',(-2.22044604925E-16,-1.,0.));
#224 = ADVANCED_FACE('',(#225),#243,.F.);
#225 = FACE_BOUND('',#226,.F.);
#226 = EDGE_LOOP('',(#227,#228,#236,#242));
#227 = ORIENTED_EDGE('',*,*,#71,.T.);
#228 = ORIENTED_EDGE('',*,*,#229,.F.);
#229 = EDGE_CURVE('',#230,#72,#232,.T.);
#230 = VERTEX_POINT('',#231);
#231 = CARTESIAN_POINT('',(0.35,-0.5,0.15));
#232 = LINE('',#233,#234);
#233 = CARTESIAN_POINT('',(0.35,-0.5,0.15));
#234 = VECTOR('',#235,1.);
#235 = DIRECTION('',(-1.,-0.,-0.));
#236 = ORIENTED_EDGE('',*,*,#237,.F.);
#237 = EDGE_CURVE('',#130,#230,#238,.T.);
#238 = LINE('',#239,#240);
#239 = CARTESIAN_POINT('',(0.35,-0.5,0.));
#240 = VECTOR('',#241,1.);
#241 = DIRECTION('',(0.,0.,1.));
#242 = ORIENTED_EDGE('',*,*,#129,.F.);
#243 = PLANE('',#244);
#244 = AXIS2_PLACEMENT_3D('',#245,#246,#247);
#245 = CARTESIAN_POINT('',(-0.6,-0.5,0.));
#246 = DIRECTION('',(0.,1.,0.));
#247 = DIRECTION('',(0.,0.,1.));
#248 = ADVANCED_FACE('',(#249),#274,.T.);
#249 = FACE_BOUND('',#250,.T.);
#250 = EDGE_LOOP('',(#251,#252,#260,#268));
#251 = ORIENTED_EDGE('',*,*,#103,.F.);
#252 = ORIENTED_EDGE('',*,*,#253,.F.);
#253 = EDGE_CURVE('',#254,#95,#256,.T.);
#254 = VERTEX_POINT('',#255);
#255 = CARTESIAN_POINT('',(0.35,-0.25,0.4));
#256 = LINE('',#257,#258);
#257 = CARTESIAN_POINT('',(0.35,-0.25,0.4));
#258 = VECTOR('',#259,1.);
#259 = DIRECTION('',(-1.,-0.,-0.));
#260 = ORIENTED_EDGE('',*,*,#261,.F.);
#261 = EDGE_CURVE('',#262,#254,#264,.T.);
#262 = VERTEX_POINT('',#263);
#263 = CARTESIAN_POINT('',(0.35,0.25,0.4));
#264 = LINE('',#265,#266);
#265 = CARTESIAN_POINT('',(0.35,0.25,0.4));
#266 = VECTOR('',#267,1.);
#267 = DIRECTION('',(-0.,-1.,-0.));
#268 = ORIENTED_EDGE('',*,*,#269,.F.);
#269 = EDGE_CURVE('',#104,#262,#270,.T.);
#270 = LINE('',#271,#272);
#271 = CARTESIAN_POINT('',(-0.35,0.25,0.4));
#272 = VECTOR('',#273,1.);
#273 = DIRECTION('',(1.,0.,0.));
#274 = PLANE('',#275);
#275 = AXIS2_PLACEMENT_3D('',#276,#277,#278);
#276 = CARTESIAN_POINT('',(-0.6,-0.5,0.4));
#277 = DIRECTION('',(0.,0.,1.));
#278 = DIRECTION('',(1.,0.,0.));
#279 = ADVANCED_FACE('',(#280),#291,.T.);
#280 = FACE_BOUND('',#281,.F.);
#281 = EDGE_LOOP('',(#282,#283,#284));
#282 = ORIENTED_EDGE('',*,*,#111,.F.);
#283 = ORIENTED_EDGE('',*,*,#196,.T.);
#284 = ORIENTED_EDGE('',*,*,#285,.T.);
#285 = EDGE_CURVE('',#189,#104,#286,.T.);
#286 = CIRCLE('',#287,0.25);
#287 = AXIS2_PLACEMENT_3D('',#288,#289,#290);
#288 = CARTESIAN_POINT('',(-0.35,0.25,0.15));
#289 = DIRECTION('',(1.,-1.608122649677E-16,0.));
#290 = DIRECTION('',(1.608122649677E-16,1.,0.));
#291 = SPHERICAL_SURFACE('',#292,0.25);
#292 = AXIS2_PLACEMENT_3D('',#293,#294,#295);
#293 = CARTESIAN_POINT('',(-0.35,0.25,0.15));
#294 = DIRECTION('',(0.,0.,1.));
#295 = DIRECTION('',(-1.,2.22044604925E-16,0.));
#296 = ADVANCED_FACE('',(#297),#315,.T.);
#297 = FACE_BOUND('',#298,.T.);
#298 = EDGE_LOOP('',(#299,#300,#308,#314));
#299 = ORIENTED_EDGE('',*,*,#188,.T.);
#300 = ORIENTED_EDGE('',*,*,#301,.T.);
#301 = EDGE_CURVE('',#189,#302,#304,.T.);
#302 = VERTEX_POINT('',#303);
#303 = CARTESIAN_POINT('',(0.35,0.5,0.15));
#304 = LINE('',#305,#306);
#305 = CARTESIAN_POINT('',(-0.35,0.5,0.15));
#306 = VECTOR('',#307,1.);
#307 = DIRECTION('',(1.,0.,0.));
#308 = ORIENTED_EDGE('',*,*,#309,.F.);
#309 = EDGE_CURVE('',#155,#302,#310,.T.);
#310 = LINE('',#311,#312);
#311 = CARTESIAN_POINT('',(0.35,0.5,0.));
#312 = VECTOR('',#313,1.);
#313 = DIRECTION('',(0.,0.,1.));
#314 = ORIENTED_EDGE('',*,*,#163,.F.);
#315 = PLANE('',#316);
#316 = AXIS2_PLACEMENT_3D('',#317,#318,#319);
#317 = CARTESIAN_POINT('',(-0.6,0.5,0.));
#318 = DIRECTION('',(0.,1.,0.));
#319 = DIRECTION('',(0.,0.,1.));
#320 = ADVANCED_FACE('',(#321),#340,.T.);
#321 = FACE_BOUND('',#322,.F.);
#322 = EDGE_LOOP('',(#323,#331,#332,#333));
#323 = ORIENTED_EDGE('',*,*,#324,.F.);
#324 = EDGE_CURVE('',#138,#325,#327,.T.);
#325 = VERTEX_POINT('',#326);
#326 = CARTESIAN_POINT('',(0.6,-0.25,0.15));
#327 = LINE('',#328,#329);
#328 = CARTESIAN_POINT('',(0.6,-0.25,0.));
#329 = VECTOR('',#330,1.);
#330 = DIRECTION('',(0.,0.,1.));
#331 = ORIENTED_EDGE('',*,*,#137,.T.);
#332 = ORIENTED_EDGE('',*,*,#237,.T.);
#333 = ORIENTED_EDGE('',*,*,#334,.F.);
#334 = EDGE_CURVE('',#325,#230,#335,.T.);
#335 = CIRCLE('',#336,0.25);
#336 = AXIS2_PLACEMENT_3D('',#337,#338,#339);
#337 = CARTESIAN_POINT('',(0.35,-0.25,0.15));
#338 = DIRECTION('',(0.,-0.,-1.));
#339 = DIRECTION('',(1.,0.,-0.));
#340 = CYLINDRICAL_SURFACE('',#341,0.25);
#341 = AXIS2_PLACEMENT_3D('',#342,#343,#344);
#342 = CARTESIAN_POINT('',(0.35,-0.25,0.));
#343 = DIRECTION('',(0.,0.,1.));
#344 = DIRECTION('',(1.,0.,0.));
#345 = ADVANCED_FACE('',(#346),#365,.T.);
#346 = FACE_BOUND('',#347,.T.);
#347 = EDGE_LOOP('',(#348,#356,#357,#358));
#348 = ORIENTED_EDGE('',*,*,#349,.F.);
#349 = EDGE_CURVE('',#147,#350,#352,.T.);
#350 = VERTEX_POINT('',#351);
#351 = CARTESIAN_POINT('',(0.6,0.25,0.15));
#352 = LINE('',#353,#354);
#353 = CARTESIAN_POINT('',(0.6,0.25,0.));
#354 = VECTOR('',#355,1.);
#355 = DIRECTION('',(0.,0.,1.));
#356 = ORIENTED_EDGE('',*,*,#154,.T.);
#357 = ORIENTED_EDGE('',*,*,#309,.T.);
#358 = ORIENTED_EDGE('',*,*,#359,.T.);
#359 = EDGE_CURVE('',#302,#350,#360,.T.);
#360 = CIRCLE('',#361,0.25);
#361 = AXIS2_PLACEMENT_3D('',#362,#363,#364);
#362 = CARTESIAN_POINT('',(0.35,0.25,0.15));
#363 = DIRECTION('',(0.,-0.,-1.));
#364 = DIRECTION('',(0.,1.,-0.));
#365 = CYLINDRICAL_SURFACE('',#366,0.25);
#366 = AXIS2_PLACEMENT_3D('',#367,#368,#369);
#367 = CARTESIAN_POINT('',(0.35,0.25,0.));
#368 = DIRECTION('',(0.,0.,1.));
#369 = DIRECTION('',(1.,0.,0.));
#370 = ADVANCED_FACE('',(#371),#382,.T.);
#371 = FACE_BOUND('',#372,.T.);
#372 = EDGE_LOOP('',(#373,#374,#375,#376));
#373 = ORIENTED_EDGE('',*,*,#324,.F.);
#374 = ORIENTED_EDGE('',*,*,#146,.T.);
#375 = ORIENTED_EDGE('',*,*,#349,.T.);
#376 = ORIENTED_EDGE('',*,*,#377,.T.);
#377 = EDGE_CURVE('',#350,#325,#378,.T.);
#378 = LINE('',#379,#380);
#379 = CARTESIAN_POINT('',(0.6,0.25,0.15));
#380 = VECTOR('',#381,1.);
#381 = DIRECTION('',(-0.,-1.,-0.));
#382 = PLANE('',#383);
#383 = AXIS2_PLACEMENT_3D('',#384,#385,#386);
#384 = CARTESIAN_POINT('',(0.6,-0.5,0.));
#385 = DIRECTION('',(1.,0.,0.));
#386 = DIRECTION('',(0.,0.,1.));
#387 = ADVANCED_FACE('',(#388),#400,.T.);
#388 = FACE_BOUND('',#389,.T.);
#389 = EDGE_LOOP('',(#390,#397,#398,#399));
#390 = ORIENTED_EDGE('',*,*,#391,.T.);
#391 = EDGE_CURVE('',#230,#254,#392,.T.);
#392 = CIRCLE('',#393,0.25);
#393 = AXIS2_PLACEMENT_3D('',#394,#395,#396);
#394 = CARTESIAN_POINT('',(0.35,-0.25,0.15));
#395 = DIRECTION('',(-1.,-6.123233995737E-17,0.));
#396 = DIRECTION('',(6.123233995737E-17,-1.,-0.));
#397 = ORIENTED_EDGE('',*,*,#253,.T.);
#398 = ORIENTED_EDGE('',*,*,#211,.F.);
#399 = ORIENTED_EDGE('',*,*,#229,.F.);
#400 = CYLINDRICAL_SURFACE('',#401,0.25);
#401 = AXIS2_PLACEMENT_3D('',#402,#403,#404);
#402 = CARTESIAN_POINT('',(0.35,-0.25,0.15));
#403 = DIRECTION('',(-1.,-0.,-0.));
#404 = DIRECTION('',(0.,-1.,0.));
#405 = ADVANCED_FACE('',(#406),#418,.T.);
#406 = FACE_BOUND('',#407,.T.);
#407 = EDGE_LOOP('',(#408,#409,#410,#417));
#408 = ORIENTED_EDGE('',*,*,#285,.T.);
#409 = ORIENTED_EDGE('',*,*,#269,.T.);
#410 = ORIENTED_EDGE('',*,*,#411,.F.);
#411 = EDGE_CURVE('',#302,#262,#412,.T.);
#412 = CIRCLE('',#413,0.25);
#413 = AXIS2_PLACEMENT_3D('',#414,#415,#416);
#414 = CARTESIAN_POINT('',(0.35,0.25,0.15));
#415 = DIRECTION('',(1.,0.,0.));
#416 = DIRECTION('',(-0.,1.,0.));
#417 = ORIENTED_EDGE('',*,*,#301,.F.);
#418 = CYLINDRICAL_SURFACE('',#419,0.25);
#419 = AXIS2_PLACEMENT_3D('',#420,#421,#422);
#420 = CARTESIAN_POINT('',(-0.35,0.25,0.15));
#421 = DIRECTION('',(1.,0.,0.));
#422 = DIRECTION('',(-0.,1.,0.));
#423 = ADVANCED_FACE('',(#424),#442,.T.);
#424 = FACE_BOUND('',#425,.T.);
#425 = EDGE_LOOP('',(#426,#433,#434,#441));
#426 = ORIENTED_EDGE('',*,*,#427,.T.);
#427 = EDGE_CURVE('',#350,#262,#428,.T.);
#428 = CIRCLE('',#429,0.25);
#429 = AXIS2_PLACEMENT_3D('',#430,#431,#432);
#430 = CARTESIAN_POINT('',(0.35,0.25,0.15));
#431 = DIRECTION('',(-1.608122649677E-16,-1.,0.));
#432 = DIRECTION('',(1.,-1.608122649677E-16,0.));
#433 = ORIENTED_EDGE('',*,*,#261,.T.);
#434 = ORIENTED_EDGE('',*,*,#435,.F.);
#435 = EDGE_CURVE('',#325,#254,#436,.T.);
#436 = CIRCLE('',#437,0.25);
#437 = AXIS2_PLACEMENT_3D('',#438,#439,#440);
#438 = CARTESIAN_POINT('',(0.35,-0.25,0.15));
#439 = DIRECTION('',(0.,-1.,-0.));
#440 = DIRECTION('',(1.,0.,-0.));
#441 = ORIENTED_EDGE('',*,*,#377,.F.);
#442 = CYLINDRICAL_SURFACE('',#443,0.25);
#443 = AXIS2_PLACEMENT_3D('',#444,#445,#446);
#444 = CARTESIAN_POINT('',(0.35,0.25,0.15));
#445 = DIRECTION('',(-0.,-1.,-0.));
#446 = DIRECTION('',(1.,0.,-0.));
#447 = ADVANCED_FACE('',(#448),#453,.T.);
#448 = FACE_BOUND('',#449,.F.);
#449 = EDGE_LOOP('',(#450,#451,#452));
#450 = ORIENTED_EDGE('',*,*,#435,.F.);
#451 = ORIENTED_EDGE('',*,*,#334,.T.);
#452 = ORIENTED_EDGE('',*,*,#391,.T.);
#453 = SPHERICAL_SURFACE('',#454,0.25);
#454 = AXIS2_PLACEMENT_3D('',#455,#456,#457);
#455 = CARTESIAN_POINT('',(0.35,-0.25,0.15));
#456 = DIRECTION('',(0.,0.,1.));
#457 = DIRECTION('',(1.,0.,-0.));
#458 = ADVANCED_FACE('',(#459),#464,.T.);
#459 = FACE_BOUND('',#460,.F.);
#460 = EDGE_LOOP('',(#461,#462,#463));
#461 = ORIENTED_EDGE('',*,*,#411,.F.);
#462 = ORIENTED_EDGE('',*,*,#359,.T.);
#463 = ORIENTED_EDGE('',*,*,#427,.T.);
#464 = SPHERICAL_SURFACE('',#465,0.25);
#465 = AXIS2_PLACEMENT_3D('',#466,#467,#468);
#466 = CARTESIAN_POINT('',(0.35,0.25,0.15));
#467 = DIRECTION('',(0.,0.,1.));
#468 = DIRECTION('',(0.,1.,-0.));
#469 = ( GEOMETRIC_REPRESENTATION_CONTEXT(3) 
GLOBAL_UNCERTAINTY_ASSIGNED_CONTEXT((#473)) GLOBAL_UNIT_ASSIGNED_CONTEXT
((#470,#471,#472)) REPRESENTATION_CONTEXT('Context #1',
  '3D Context with UNIT and UNCERTAINTY') );
#470 = ( LENGTH_UNIT() NAMED_UNIT(*) SI_UNIT(.MILLI.,.METRE.) );
#471 = ( NAMED_UNIT(*) PLANE_ANGLE_UNIT() SI_UNIT($,.RADIAN.) );
#472 = ( NAMED_UNIT(*) SI_UNIT($,.STERADIAN.) SOLID_ANGLE_UNIT() );
#473 = UNCERTAINTY_MEASURE_WITH_UNIT(LENGTH_MEASURE(1.E-07),#470,
  'distance_accuracy_value','confusion accuracy');
#474 = PRODUCT_RELATED_PRODUCT_CATEGORY('part',$,(#7));
#475 = MECHANICAL_DESIGN_GEOMETRIC_PRESENTATION_REPRESENTATION('',(#476)
  ,#469);
#476 = STYLED_ITEM('color',(#477),#15);
#477 = PRESENTATION_STYLE_ASSIGNMENT((#478,#484));
#478 = SURFACE_STYLE_USAGE(.BOTH.,#479);
#479 = SURFACE_SIDE_STYLE('',(#480));
#480 = SURFACE_STYLE_FILL_AREA(#481);
#481 = FILL_AREA_STYLE('',(#482));
#482 = FILL_AREA_STYLE_COLOUR('',#483);
#483 = COLOUR_RGB('',0.800000010877,0.800000010877,0.901960800373);
#484 = CURVE_STYLE('',#485,POSITIVE_LENGTH_MEASURE(0.1),#486);
#485 = DRAUGHTING_PRE_DEFINED_CURVE_FONT('continuous');
#486 = COLOUR_RGB('',9.803921802644E-02,9.803921802644E-02,
  9.803921802644E-02);
ENDSEC;
END-ISO-10303-21;
